# xmcd CD database file
#
# Track frame offsets:
#	182
#	17032
#	34955
#	54127
#	70160
#	88712
#	111187
#	125015
#	135920
#	151670
#	161247
#	181687
#
# Disc length: 2705 seconds
#
# Revision: 4
# Processed by: cddbd v1.5.2PL0 Copyright (c) Steve Scherf et al.
# Submitted via: CDex 1.51
#
DISCID=920a8f0c
DTITLE=Various Artist - New Country December 1995
DYEAR=1995
DGENRE=Country
TTITLE0=Michael Johnson - Cain's Blood
TTITLE1=Kate Wallace - Hard Woman to Love
TTITLE2=Ken Holloway w/ Lari White - I'm Not Gonna Fall to Pieces
TTITLE3=Nashville Bluegrass Band - You Wouldn't Know Love
TTITLE4=Curtis Day - I Can Do It In My Sleep
TTITLE5=Four Bitchin' Babes - My Mother's Hands
TTITLE6=Brother Boys - Let's Shake Loose
TTITLE7=Michael Martin Murphey - A Hundred Years From Now
TTITLE8=Cliff Eberhardt - Brave Little Grey
TTITLE9=Ralph Stanley - Katy Daly
TTITLE10=Rosalie Sorrels - Nevada Moon
TTITLE11=Austin Lounge Lizards - Old Blevins
EXTD=cd sampler YEAR: 1995
EXTT0=
EXTT1=
EXTT2=
EXTT3=
EXTT4=
EXTT5=
EXTT6=
EXTT7=
EXTT8=
EXTT9=
EXTT10=
EXTT11=
PLAYORDER=
